<mxfile host="65bd71144e">
    <diagram id="0Pd0UxfVck5dsnB7yLwl" name="Page-1">
        <mxGraphModel dx="2972" dy="1796" grid="1" gridSize="10" guides="1" tooltips="1" connect="1" arrows="1" fold="1" page="1" pageScale="1" pageWidth="850" pageHeight="1100" math="0" shadow="0">
            <root>
                <mxCell id="0"/>
                <mxCell id="1" parent="0"/>
                <mxCell id="2" value="Comment" style="swimlane;whiteSpace=wrap;html=1;" vertex="1" parent="1">
                    <mxGeometry x="-770" y="-10" width="690" height="190" as="geometry"/>
                </mxCell>
                <mxCell id="4" value="&lt;span style=&quot;color: rgb(255, 255, 255); font-family: &amp;quot;Public Sans&amp;quot;, sans-serif; font-size: 13px; text-align: left; background-color: rgb(68, 72, 74);&quot;&gt;Để tạo một comment trong Python, bạn sẽ cần thêm ký tự hashtag (#) vào trước nội dung bạn muốn tạo comment.&lt;br&gt;&amp;nbsp;Ví dụ như sau: # Đây là một comment.&lt;/span&gt;" style="text;html=1;align=center;verticalAlign=middle;resizable=0;points=[];autosize=1;strokeColor=none;fillColor=none;" vertex="1" parent="2">
                    <mxGeometry y="40" width="680" height="40" as="geometry"/>
                </mxCell>
                <mxCell id="8" value="Variables&lt;br&gt;" style="swimlane;whiteSpace=wrap;html=1;" vertex="1" parent="1">
                    <mxGeometry x="-780" y="210" width="755" height="200" as="geometry"/>
                </mxCell>
                <mxCell id="10" value="vi du:&amp;nbsp;&lt;span style=&quot;color: rgb(255, 255, 255); font-family: &amp;quot;Public Sans&amp;quot;, sans-serif; font-size: 13px; text-align: left; background-color: rgb(68, 72, 74);&quot;&gt; x = 5&lt;br/&gt;y = &quot;Hello World&quot;&lt;br/&gt;person = {'name': 'John', 'age': 30}&lt;/span&gt;" style="text;html=1;align=center;verticalAlign=middle;resizable=0;points=[];autosize=1;strokeColor=none;fillColor=none;" vertex="1" parent="8">
                    <mxGeometry x="245" y="100" width="220" height="60" as="geometry"/>
                </mxCell>
                <mxCell id="12" value="&lt;span style=&quot;color: rgb(255, 255, 255); font-family: &amp;quot;Public Sans&amp;quot;, sans-serif; font-size: 13px; text-align: left; background-color: rgb(68, 72, 74);&quot;&gt;Trong Python, biến (variables) là tên được dùng để chỉ một giá trị cho một khối lượng dữ liệu nào đó.&lt;/span&gt;&lt;br style=&quot;color: rgb(255, 255, 255); font-family: &amp;quot;Public Sans&amp;quot;, sans-serif; font-size: 13px; text-align: left;&quot;&gt;&lt;span style=&quot;color: rgb(255, 255, 255); font-family: &amp;quot;Public Sans&amp;quot;, sans-serif; font-size: 13px; text-align: left; background-color: rgb(68, 72, 74);&quot;&gt;Các biến của Python được sử dụng để chứa các giá trị,&lt;/span&gt;&lt;br style=&quot;color: rgb(255, 255, 255); font-family: &amp;quot;Public Sans&amp;quot;, sans-serif; font-size: 13px; text-align: left;&quot;&gt;&lt;span style=&quot;color: rgb(255, 255, 255); font-family: &amp;quot;Public Sans&amp;quot;, sans-serif; font-size: 13px; text-align: left; background-color: rgb(68, 72, 74);&quot;&gt;những giá trị này có thể là số, chuỗi hoặc các đối tượng khác.&lt;/span&gt;&lt;br style=&quot;color: rgb(255, 255, 255); font-family: &amp;quot;Public Sans&amp;quot;, sans-serif; font-size: 13px; text-align: left;&quot;&gt;&lt;span style=&quot;color: rgb(255, 255, 255); font-family: &amp;quot;Public Sans&amp;quot;, sans-serif; font-size: 13px; text-align: left; background-color: rgb(68, 72, 74);&quot;&gt;Các biến được đặt tên để dễ dàng truy suất và sử dụng trong chương trình.&lt;/span&gt;" style="text;html=1;align=center;verticalAlign=middle;resizable=0;points=[];autosize=1;strokeColor=none;fillColor=none;" vertex="1" parent="8">
                    <mxGeometry x="50" y="20" width="600" height="80" as="geometry"/>
                </mxCell>
                <mxCell id="11" value="variables name&lt;br&gt;" style="swimlane;whiteSpace=wrap;html=1;startSize=20;direction=east;" vertex="1" parent="1">
                    <mxGeometry x="-780" y="430" width="750" height="310" as="geometry"/>
                </mxCell>
                <mxCell id="13" value="&lt;span style=&quot;color: rgb(255, 255, 255); font-family: &amp;quot;Public Sans&amp;quot;, sans-serif; font-size: 13px; text-align: left; background-color: rgb(68, 72, 74);&quot;&gt;1. Tên biến không thể bắt đầu bằng số&lt;br/&gt;2.Tên biến phải bắt đầu bằng một chữ cái, hoặc ký tự dấu gạch dưới(_).&lt;br/&gt;3. &lt;br&gt;Không sử dụng bất kỳ từ đã gắn với các từ khóa Python (ví dụ như các từ def, if và các từ khóa khác).&lt;br/&gt;4.&lt;br&gt;&amp;nbsp;Tên biến phải là các từ có ý nghĩa mô tả ngắn gọn về biến.&lt;br/&gt;5. Tên biến không được có khoảng trắng và các ký tự đặc biệt (ví dụ: @, #, %).&lt;/span&gt;" style="text;html=1;align=center;verticalAlign=middle;resizable=0;points=[];autosize=1;strokeColor=none;fillColor=none;" vertex="1" parent="11">
                    <mxGeometry x="70" y="20" width="610" height="120" as="geometry"/>
                </mxCell>
                <mxCell id="14" value="&lt;span style=&quot;color: rgb(0, 0, 0); font-family: Consolas, Menlo, &amp;quot;courier new&amp;quot;, monospace; font-size: 15px; text-align: start; background-color: rgb(255, 255, 255);&quot;&gt;myvar =&amp;nbsp;&lt;/span&gt;&lt;span style=&quot;box-sizing: inherit; --tw-border-spacing-x: 0; --tw-border-spacing-y: 0; --tw-translate-x: 0; --tw-translate-y: 0; --tw-rotate: 0; --tw-skew-x: 0; --tw-skew-y: 0; --tw-scale-x: 1; --tw-scale-y: 1; --tw-pan-x: ; --tw-pan-y: ; --tw-pinch-zoom: ; --tw-scroll-snap-strictness: proximity; --tw-ordinal: ; --tw-slashed-zero: ; --tw-numeric-figure: ; --tw-numeric-spacing: ; --tw-numeric-fraction: ; --tw-ring-inset: ; --tw-ring-offset-width: 0px; --tw-ring-offset-color: #fff; --tw-ring-color: rgb(59 130 246 / 0.5); --tw-ring-offset-shadow: 0 0 #0000; --tw-ring-shadow: 0 0 #0000; --tw-shadow: 0 0 #0000; --tw-shadow-colored: 0 0 #0000; --tw-blur: ; --tw-brightness: ; --tw-contrast: ; --tw-grayscale: ; --tw-hue-rotate: ; --tw-invert: ; --tw-saturate: ; --tw-sepia: ; --tw-drop-shadow: ; --tw-backdrop-blur: ; --tw-backdrop-brightness: ; --tw-backdrop-contrast: ; --tw-backdrop-grayscale: ; --tw-backdrop-hue-rotate: ; --tw-backdrop-invert: ; --tw-backdrop-opacity: ; --tw-backdrop-saturate: ; --tw-backdrop-sepia: ; color: brown; font-family: Consolas, Menlo, &amp;quot;courier new&amp;quot;, monospace; font-size: 15px; text-align: start; background-color: rgb(255, 255, 255);&quot; class=&quot;pythonstringcolor&quot;&gt;&quot;John&quot;&lt;/span&gt;&lt;br style=&quot;box-sizing: inherit; --tw-border-spacing-x: 0; --tw-border-spacing-y: 0; --tw-translate-x: 0; --tw-translate-y: 0; --tw-rotate: 0; --tw-skew-x: 0; --tw-skew-y: 0; --tw-scale-x: 1; --tw-scale-y: 1; --tw-pan-x: ; --tw-pan-y: ; --tw-pinch-zoom: ; --tw-scroll-snap-strictness: proximity; --tw-ordinal: ; --tw-slashed-zero: ; --tw-numeric-figure: ; --tw-numeric-spacing: ; --tw-numeric-fraction: ; --tw-ring-inset: ; --tw-ring-offset-width: 0px; --tw-ring-offset-color: #fff; --tw-ring-color: rgb(59 130 246 / 0.5); --tw-ring-offset-shadow: 0 0 #0000; --tw-ring-shadow: 0 0 #0000; --tw-shadow: 0 0 #0000; --tw-shadow-colored: 0 0 #0000; --tw-blur: ; --tw-brightness: ; --tw-contrast: ; --tw-grayscale: ; --tw-hue-rotate: ; --tw-invert: ; --tw-saturate: ; --tw-sepia: ; --tw-drop-shadow: ; --tw-backdrop-blur: ; --tw-backdrop-brightness: ; --tw-backdrop-contrast: ; --tw-backdrop-grayscale: ; --tw-backdrop-hue-rotate: ; --tw-backdrop-invert: ; --tw-backdrop-opacity: ; --tw-backdrop-saturate: ; --tw-backdrop-sepia: ; color: rgb(0, 0, 0); font-family: Consolas, Menlo, &amp;quot;courier new&amp;quot;, monospace; font-size: 15px; text-align: start; background-color: rgb(255, 255, 255);&quot;&gt;&lt;span style=&quot;color: rgb(0, 0, 0); font-family: Consolas, Menlo, &amp;quot;courier new&amp;quot;, monospace; font-size: 15px; text-align: start; background-color: rgb(255, 255, 255);&quot;&gt;my_var =&amp;nbsp;&lt;/span&gt;&lt;span style=&quot;box-sizing: inherit; --tw-border-spacing-x: 0; --tw-border-spacing-y: 0; --tw-translate-x: 0; --tw-translate-y: 0; --tw-rotate: 0; --tw-skew-x: 0; --tw-skew-y: 0; --tw-scale-x: 1; --tw-scale-y: 1; --tw-pan-x: ; --tw-pan-y: ; --tw-pinch-zoom: ; --tw-scroll-snap-strictness: proximity; --tw-ordinal: ; --tw-slashed-zero: ; --tw-numeric-figure: ; --tw-numeric-spacing: ; --tw-numeric-fraction: ; --tw-ring-inset: ; --tw-ring-offset-width: 0px; --tw-ring-offset-color: #fff; --tw-ring-color: rgb(59 130 246 / 0.5); --tw-ring-offset-shadow: 0 0 #0000; --tw-ring-shadow: 0 0 #0000; --tw-shadow: 0 0 #0000; --tw-shadow-colored: 0 0 #0000; --tw-blur: ; --tw-brightness: ; --tw-contrast: ; --tw-grayscale: ; --tw-hue-rotate: ; --tw-invert: ; --tw-saturate: ; --tw-sepia: ; --tw-drop-shadow: ; --tw-backdrop-blur: ; --tw-backdrop-brightness: ; --tw-backdrop-contrast: ; --tw-backdrop-grayscale: ; --tw-backdrop-hue-rotate: ; --tw-backdrop-invert: ; --tw-backdrop-opacity: ; --tw-backdrop-saturate: ; --tw-backdrop-sepia: ; color: brown; font-family: Consolas, Menlo, &amp;quot;courier new&amp;quot;, monospace; font-size: 15px; text-align: start; background-color: rgb(255, 255, 255);&quot; class=&quot;pythonstringcolor&quot;&gt;&quot;John&quot;&lt;/span&gt;&lt;br style=&quot;box-sizing: inherit; --tw-border-spacing-x: 0; --tw-border-spacing-y: 0; --tw-translate-x: 0; --tw-translate-y: 0; --tw-rotate: 0; --tw-skew-x: 0; --tw-skew-y: 0; --tw-scale-x: 1; --tw-scale-y: 1; --tw-pan-x: ; --tw-pan-y: ; --tw-pinch-zoom: ; --tw-scroll-snap-strictness: proximity; --tw-ordinal: ; --tw-slashed-zero: ; --tw-numeric-figure: ; --tw-numeric-spacing: ; --tw-numeric-fraction: ; --tw-ring-inset: ; --tw-ring-offset-width: 0px; --tw-ring-offset-color: #fff; --tw-ring-color: rgb(59 130 246 / 0.5); --tw-ring-offset-shadow: 0 0 #0000; --tw-ring-shadow: 0 0 #0000; --tw-shadow: 0 0 #0000; --tw-shadow-colored: 0 0 #0000; --tw-blur: ; --tw-brightness: ; --tw-contrast: ; --tw-grayscale: ; --tw-hue-rotate: ; --tw-invert: ; --tw-saturate: ; --tw-sepia: ; --tw-drop-shadow: ; --tw-backdrop-blur: ; --tw-backdrop-brightness: ; --tw-backdrop-contrast: ; --tw-backdrop-grayscale: ; --tw-backdrop-hue-rotate: ; --tw-backdrop-invert: ; --tw-backdrop-opacity: ; --tw-backdrop-saturate: ; --tw-backdrop-sepia: ; color: rgb(0, 0, 0); font-family: Consolas, Menlo, &amp;quot;courier new&amp;quot;, monospace; font-size: 15px; text-align: start; background-color: rgb(255, 255, 255);&quot;&gt;&lt;span style=&quot;color: rgb(0, 0, 0); font-family: Consolas, Menlo, &amp;quot;courier new&amp;quot;, monospace; font-size: 15px; text-align: start; background-color: rgb(255, 255, 255);&quot;&gt;_my_var =&amp;nbsp;&lt;/span&gt;&lt;span style=&quot;box-sizing: inherit; --tw-border-spacing-x: 0; --tw-border-spacing-y: 0; --tw-translate-x: 0; --tw-translate-y: 0; --tw-rotate: 0; --tw-skew-x: 0; --tw-skew-y: 0; --tw-scale-x: 1; --tw-scale-y: 1; --tw-pan-x: ; --tw-pan-y: ; --tw-pinch-zoom: ; --tw-scroll-snap-strictness: proximity; --tw-ordinal: ; --tw-slashed-zero: ; --tw-numeric-figure: ; --tw-numeric-spacing: ; --tw-numeric-fraction: ; --tw-ring-inset: ; --tw-ring-offset-width: 0px; --tw-ring-offset-color: #fff; --tw-ring-color: rgb(59 130 246 / 0.5); --tw-ring-offset-shadow: 0 0 #0000; --tw-ring-shadow: 0 0 #0000; --tw-shadow: 0 0 #0000; --tw-shadow-colored: 0 0 #0000; --tw-blur: ; --tw-brightness: ; --tw-contrast: ; --tw-grayscale: ; --tw-hue-rotate: ; --tw-invert: ; --tw-saturate: ; --tw-sepia: ; --tw-drop-shadow: ; --tw-backdrop-blur: ; --tw-backdrop-brightness: ; --tw-backdrop-contrast: ; --tw-backdrop-grayscale: ; --tw-backdrop-hue-rotate: ; --tw-backdrop-invert: ; --tw-backdrop-opacity: ; --tw-backdrop-saturate: ; --tw-backdrop-sepia: ; color: brown; font-family: Consolas, Menlo, &amp;quot;courier new&amp;quot;, monospace; font-size: 15px; text-align: start; background-color: rgb(255, 255, 255);&quot; class=&quot;pythonstringcolor&quot;&gt;&quot;John&quot;&lt;/span&gt;&lt;br style=&quot;box-sizing: inherit; --tw-border-spacing-x: 0; --tw-border-spacing-y: 0; --tw-translate-x: 0; --tw-translate-y: 0; --tw-rotate: 0; --tw-skew-x: 0; --tw-skew-y: 0; --tw-scale-x: 1; --tw-scale-y: 1; --tw-pan-x: ; --tw-pan-y: ; --tw-pinch-zoom: ; --tw-scroll-snap-strictness: proximity; --tw-ordinal: ; --tw-slashed-zero: ; --tw-numeric-figure: ; --tw-numeric-spacing: ; --tw-numeric-fraction: ; --tw-ring-inset: ; --tw-ring-offset-width: 0px; --tw-ring-offset-color: #fff; --tw-ring-color: rgb(59 130 246 / 0.5); --tw-ring-offset-shadow: 0 0 #0000; --tw-ring-shadow: 0 0 #0000; --tw-shadow: 0 0 #0000; --tw-shadow-colored: 0 0 #0000; --tw-blur: ; --tw-brightness: ; --tw-contrast: ; --tw-grayscale: ; --tw-hue-rotate: ; --tw-invert: ; --tw-saturate: ; --tw-sepia: ; --tw-drop-shadow: ; --tw-backdrop-blur: ; --tw-backdrop-brightness: ; --tw-backdrop-contrast: ; --tw-backdrop-grayscale: ; --tw-backdrop-hue-rotate: ; --tw-backdrop-invert: ; --tw-backdrop-opacity: ; --tw-backdrop-saturate: ; --tw-backdrop-sepia: ; color: rgb(0, 0, 0); font-family: Consolas, Menlo, &amp;quot;courier new&amp;quot;, monospace; font-size: 15px; text-align: start; background-color: rgb(255, 255, 255);&quot;&gt;&lt;span style=&quot;color: rgb(0, 0, 0); font-family: Consolas, Menlo, &amp;quot;courier new&amp;quot;, monospace; font-size: 15px; text-align: start; background-color: rgb(255, 255, 255);&quot;&gt;myVar =&amp;nbsp;&lt;/span&gt;&lt;span style=&quot;box-sizing: inherit; --tw-border-spacing-x: 0; --tw-border-spacing-y: 0; --tw-translate-x: 0; --tw-translate-y: 0; --tw-rotate: 0; --tw-skew-x: 0; --tw-skew-y: 0; --tw-scale-x: 1; --tw-scale-y: 1; --tw-pan-x: ; --tw-pan-y: ; --tw-pinch-zoom: ; --tw-scroll-snap-strictness: proximity; --tw-ordinal: ; --tw-slashed-zero: ; --tw-numeric-figure: ; --tw-numeric-spacing: ; --tw-numeric-fraction: ; --tw-ring-inset: ; --tw-ring-offset-width: 0px; --tw-ring-offset-color: #fff; --tw-ring-color: rgb(59 130 246 / 0.5); --tw-ring-offset-shadow: 0 0 #0000; --tw-ring-shadow: 0 0 #0000; --tw-shadow: 0 0 #0000; --tw-shadow-colored: 0 0 #0000; --tw-blur: ; --tw-brightness: ; --tw-contrast: ; --tw-grayscale: ; --tw-hue-rotate: ; --tw-invert: ; --tw-saturate: ; --tw-sepia: ; --tw-drop-shadow: ; --tw-backdrop-blur: ; --tw-backdrop-brightness: ; --tw-backdrop-contrast: ; --tw-backdrop-grayscale: ; --tw-backdrop-hue-rotate: ; --tw-backdrop-invert: ; --tw-backdrop-opacity: ; --tw-backdrop-saturate: ; --tw-backdrop-sepia: ; color: brown; font-family: Consolas, Menlo, &amp;quot;courier new&amp;quot;, monospace; font-size: 15px; text-align: start; background-color: rgb(255, 255, 255);&quot; class=&quot;pythonstringcolor&quot;&gt;&quot;John&quot;&lt;/span&gt;&lt;br style=&quot;box-sizing: inherit; --tw-border-spacing-x: 0; --tw-border-spacing-y: 0; --tw-translate-x: 0; --tw-translate-y: 0; --tw-rotate: 0; --tw-skew-x: 0; --tw-skew-y: 0; --tw-scale-x: 1; --tw-scale-y: 1; --tw-pan-x: ; --tw-pan-y: ; --tw-pinch-zoom: ; --tw-scroll-snap-strictness: proximity; --tw-ordinal: ; --tw-slashed-zero: ; --tw-numeric-figure: ; --tw-numeric-spacing: ; --tw-numeric-fraction: ; --tw-ring-inset: ; --tw-ring-offset-width: 0px; --tw-ring-offset-color: #fff; --tw-ring-color: rgb(59 130 246 / 0.5); --tw-ring-offset-shadow: 0 0 #0000; --tw-ring-shadow: 0 0 #0000; --tw-shadow: 0 0 #0000; --tw-shadow-colored: 0 0 #0000; --tw-blur: ; --tw-brightness: ; --tw-contrast: ; --tw-grayscale: ; --tw-hue-rotate: ; --tw-invert: ; --tw-saturate: ; --tw-sepia: ; --tw-drop-shadow: ; --tw-backdrop-blur: ; --tw-backdrop-brightness: ; --tw-backdrop-contrast: ; --tw-backdrop-grayscale: ; --tw-backdrop-hue-rotate: ; --tw-backdrop-invert: ; --tw-backdrop-opacity: ; --tw-backdrop-saturate: ; --tw-backdrop-sepia: ; color: rgb(0, 0, 0); font-family: Consolas, Menlo, &amp;quot;courier new&amp;quot;, monospace; font-size: 15px; text-align: start; background-color: rgb(255, 255, 255);&quot;&gt;&lt;span style=&quot;box-sizing: inherit; --tw-border-spacing-x: 0; --tw-border-spacing-y: 0; --tw-translate-x: 0; --tw-translate-y: 0; --tw-rotate: 0; --tw-skew-x: 0; --tw-skew-y: 0; --tw-scale-x: 1; --tw-scale-y: 1; --tw-pan-x: ; --tw-pan-y: ; --tw-pinch-zoom: ; --tw-scroll-snap-strictness: proximity; --tw-ordinal: ; --tw-slashed-zero: ; --tw-numeric-figure: ; --tw-numeric-spacing: ; --tw-numeric-fraction: ; --tw-ring-inset: ; --tw-ring-offset-width: 0px; --tw-ring-offset-color: #fff; --tw-ring-color: rgb(59 130 246 / 0.5); --tw-ring-offset-shadow: 0 0 #0000; --tw-ring-shadow: 0 0 #0000; --tw-shadow: 0 0 #0000; --tw-shadow-colored: 0 0 #0000; --tw-blur: ; --tw-brightness: ; --tw-contrast: ; --tw-grayscale: ; --tw-hue-rotate: ; --tw-invert: ; --tw-saturate: ; --tw-sepia: ; --tw-drop-shadow: ; --tw-backdrop-blur: ; --tw-backdrop-brightness: ; --tw-backdrop-contrast: ; --tw-backdrop-grayscale: ; --tw-backdrop-hue-rotate: ; --tw-backdrop-invert: ; --tw-backdrop-opacity: ; --tw-backdrop-saturate: ; --tw-backdrop-sepia: ; color: red; font-family: Consolas, Menlo, &amp;quot;courier new&amp;quot;, monospace; font-size: 15px; text-align: start; background-color: rgb(255, 255, 255);&quot; class=&quot;pythonnumbercolor&quot;&gt;&lt;/span&gt;&lt;span style=&quot;color: rgb(0, 0, 0); font-family: Consolas, Menlo, &amp;quot;courier new&amp;quot;, monospace; font-size: 15px; text-align: start; background-color: rgb(255, 255, 255);&quot;&gt;MYVAR =&amp;nbsp;&lt;/span&gt;&lt;span style=&quot;box-sizing: inherit; --tw-border-spacing-x: 0; --tw-border-spacing-y: 0; --tw-translate-x: 0; --tw-translate-y: 0; --tw-rotate: 0; --tw-skew-x: 0; --tw-skew-y: 0; --tw-scale-x: 1; --tw-scale-y: 1; --tw-pan-x: ; --tw-pan-y: ; --tw-pinch-zoom: ; --tw-scroll-snap-strictness: proximity; --tw-ordinal: ; --tw-slashed-zero: ; --tw-numeric-figure: ; --tw-numeric-spacing: ; --tw-numeric-fraction: ; --tw-ring-inset: ; --tw-ring-offset-width: 0px; --tw-ring-offset-color: #fff; --tw-ring-color: rgb(59 130 246 / 0.5); --tw-ring-offset-shadow: 0 0 #0000; --tw-ring-shadow: 0 0 #0000; --tw-shadow: 0 0 #0000; --tw-shadow-colored: 0 0 #0000; --tw-blur: ; --tw-brightness: ; --tw-contrast: ; --tw-grayscale: ; --tw-hue-rotate: ; --tw-invert: ; --tw-saturate: ; --tw-sepia: ; --tw-drop-shadow: ; --tw-backdrop-blur: ; --tw-backdrop-brightness: ; --tw-backdrop-contrast: ; --tw-backdrop-grayscale: ; --tw-backdrop-hue-rotate: ; --tw-backdrop-invert: ; --tw-backdrop-opacity: ; --tw-backdrop-saturate: ; --tw-backdrop-sepia: ; color: brown; font-family: Consolas, Menlo, &amp;quot;courier new&amp;quot;, monospace; font-size: 15px; text-align: start; background-color: rgb(255, 255, 255);&quot; class=&quot;pythonstringcolor&quot;&gt;&quot;John&quot;&lt;/span&gt;&lt;br style=&quot;box-sizing: inherit; --tw-border-spacing-x: 0; --tw-border-spacing-y: 0; --tw-translate-x: 0; --tw-translate-y: 0; --tw-rotate: 0; --tw-skew-x: 0; --tw-skew-y: 0; --tw-scale-x: 1; --tw-scale-y: 1; --tw-pan-x: ; --tw-pan-y: ; --tw-pinch-zoom: ; --tw-scroll-snap-strictness: proximity; --tw-ordinal: ; --tw-slashed-zero: ; --tw-numeric-figure: ; --tw-numeric-spacing: ; --tw-numeric-fraction: ; --tw-ring-inset: ; --tw-ring-offset-width: 0px; --tw-ring-offset-color: #fff; --tw-ring-color: rgb(59 130 246 / 0.5); --tw-ring-offset-shadow: 0 0 #0000; --tw-ring-shadow: 0 0 #0000; --tw-shadow: 0 0 #0000; --tw-shadow-colored: 0 0 #0000; --tw-blur: ; --tw-brightness: ; --tw-contrast: ; --tw-grayscale: ; --tw-hue-rotate: ; --tw-invert: ; --tw-saturate: ; --tw-sepia: ; --tw-drop-shadow: ; --tw-backdrop-blur: ; --tw-backdrop-brightness: ; --tw-backdrop-contrast: ; --tw-backdrop-grayscale: ; --tw-backdrop-hue-rotate: ; --tw-backdrop-invert: ; --tw-backdrop-opacity: ; --tw-backdrop-saturate: ; --tw-backdrop-sepia: ; color: rgb(0, 0, 0); font-family: Consolas, Menlo, &amp;quot;courier new&amp;quot;, monospace; font-size: 15px; text-align: start; background-color: rgb(255, 255, 255);&quot;&gt;&lt;span style=&quot;color: rgb(0, 0, 0); font-family: Consolas, Menlo, &amp;quot;courier new&amp;quot;, monospace; font-size: 15px; text-align: start; background-color: rgb(255, 255, 255);&quot;&gt;myvar2 =&amp;nbsp;&lt;/span&gt;&lt;span style=&quot;box-sizing: inherit; --tw-border-spacing-x: 0; --tw-border-spacing-y: 0; --tw-translate-x: 0; --tw-translate-y: 0; --tw-rotate: 0; --tw-skew-x: 0; --tw-skew-y: 0; --tw-scale-x: 1; --tw-scale-y: 1; --tw-pan-x: ; --tw-pan-y: ; --tw-pinch-zoom: ; --tw-scroll-snap-strictness: proximity; --tw-ordinal: ; --tw-slashed-zero: ; --tw-numeric-figure: ; --tw-numeric-spacing: ; --tw-numeric-fraction: ; --tw-ring-inset: ; --tw-ring-offset-width: 0px; --tw-ring-offset-color: #fff; --tw-ring-color: rgb(59 130 246 / 0.5); --tw-ring-offset-shadow: 0 0 #0000; --tw-ring-shadow: 0 0 #0000; --tw-shadow: 0 0 #0000; --tw-shadow-colored: 0 0 #0000; --tw-blur: ; --tw-brightness: ; --tw-contrast: ; --tw-grayscale: ; --tw-hue-rotate: ; --tw-invert: ; --tw-saturate: ; --tw-sepia: ; --tw-drop-shadow: ; --tw-backdrop-blur: ; --tw-backdrop-brightness: ; --tw-backdrop-contrast: ; --tw-backdrop-grayscale: ; --tw-backdrop-hue-rotate: ; --tw-backdrop-invert: ; --tw-backdrop-opacity: ; --tw-backdrop-saturate: ; --tw-backdrop-sepia: ; color: brown; font-family: Consolas, Menlo, &amp;quot;courier new&amp;quot;, monospace; font-size: 15px; text-align: start; background-color: rgb(255, 255, 255);&quot; class=&quot;pythonstringcolor&quot;&gt;&quot;John&quot;&lt;/span&gt;" style="text;html=1;align=center;verticalAlign=middle;resizable=0;points=[];autosize=1;strokeColor=none;fillColor=none;" vertex="1" parent="11">
                    <mxGeometry x="285" y="150" width="170" height="120" as="geometry"/>
                </mxCell>
                <mxCell id="16" value="Assign Values&lt;br&gt;" style="swimlane;whiteSpace=wrap;html=1;" vertex="1" parent="1">
                    <mxGeometry x="-780" y="760" width="740" height="200" as="geometry"/>
                </mxCell>
                <mxCell id="18" value="&lt;span style=&quot;color: rgb(255, 255, 255); font-family: &amp;quot;Public Sans&amp;quot;, sans-serif; font-size: 13px; text-align: left; background-color: rgb(68, 72, 74);&quot;&gt;Bạn có thể sử dụng cú pháp như sau để gán nhiều biến cùng lúc trong Python:&lt;br&gt;&amp;lt;variable_1&amp;gt;, &amp;lt;variable_2&amp;gt;, ..., &amp;lt;variable_n&amp;gt; = &amp;lt;value_1&amp;gt;, &amp;lt;value_2&amp;gt;, ..., &amp;lt;value_n&amp;gt;. Ví dụ, x, y, z = 10, 20, 30&lt;/span&gt;" style="text;html=1;align=center;verticalAlign=middle;resizable=0;points=[];autosize=1;strokeColor=none;fillColor=none;" vertex="1" parent="16">
                    <mxGeometry x="40" y="20" width="660" height="40" as="geometry"/>
                </mxCell>
                <mxCell id="19" value="&lt;span style=&quot;color: rgb(255, 255, 255); font-family: &amp;quot;Public Sans&amp;quot;, sans-serif; font-size: 13px; text-align: left; background-color: rgb(68, 72, 74);&quot;&gt;Giá trị có thể được gán cho nhiều biến trong python như sau:&lt;br/&gt; x, y, z = 1, 2, 3&lt;br/&gt;a, b, c = 4, 5, 6&lt;/span&gt;" style="text;html=1;align=center;verticalAlign=middle;resizable=0;points=[];autosize=1;strokeColor=none;fillColor=none;" vertex="1" parent="16">
                    <mxGeometry x="160" y="70" width="380" height="60" as="geometry"/>
                </mxCell>
                <mxCell id="20" value="Output Variables" style="swimlane;whiteSpace=wrap;html=1;" vertex="1" parent="1">
                    <mxGeometry x="-780" y="990" width="730" height="200" as="geometry"/>
                </mxCell>
                <mxCell id="21" value="&lt;span style=&quot;color: rgb(255, 255, 255); font-family: &amp;quot;Public Sans&amp;quot;, sans-serif; font-size: 13px; text-align: left; background-color: rgb(68, 72, 74);&quot;&gt;Output trong Python là kết quả có thể được trả về từ chương trình hoặc hàm. &lt;br&gt;Output có thể là một biến, giá trị, chuỗi, danh sách, tuples hoặc dictionary.&lt;/span&gt;" style="text;html=1;align=center;verticalAlign=middle;resizable=0;points=[];autosize=1;strokeColor=none;fillColor=none;" vertex="1" parent="20">
                    <mxGeometry x="135" y="50" width="470" height="40" as="geometry"/>
                </mxCell>
                <mxCell id="22" value="Global Variables&lt;br&gt;" style="swimlane;whiteSpace=wrap;html=1;" vertex="1" parent="1">
                    <mxGeometry x="-790" y="1210" width="750" height="350" as="geometry"/>
                </mxCell>
                <mxCell id="23" value="&lt;span style=&quot;text-align: left; background-color: rgb(68, 72, 74);&quot;&gt;&lt;font face=&quot;Public Sans, sans-serif&quot; color=&quot;#ffffff&quot;&gt;&lt;span style=&quot;font-size: 13px;&quot;&gt;:Global variables trong Python là biến có thể sử dụng trên toàn bộ chương trình của bạn. &lt;/span&gt;&lt;/font&gt;&lt;br&gt;&lt;font face=&quot;Public Sans, sans-serif&quot; color=&quot;#ffffff&quot;&gt;&lt;span style=&quot;font-size: 13px;&quot;&gt;Khi bạn khai báo một biến global, nó có thể được sử dụng bởi tất cả các phần khác của chương trình của bạn. &lt;/span&gt;&lt;/font&gt;&lt;br&gt;&lt;font face=&quot;Public Sans, sans-serif&quot; color=&quot;#ffffff&quot;&gt;&lt;span style=&quot;font-size: 13px;&quot;&gt;Bạn có thể khai báo một biến global bằng cách sử dụng từ khóa &quot;global&quot;. &lt;/span&gt;&lt;/font&gt;&lt;br&gt;&lt;font face=&quot;Public Sans, sans-serif&quot; color=&quot;#ffffff&quot;&gt;&lt;span style=&quot;font-size: 13px;&quot;&gt;Ví dụ:&lt;/span&gt;&lt;/font&gt;&lt;br&gt;&lt;font face=&quot;Public Sans, sans-serif&quot; color=&quot;#ffffff&quot;&gt;&lt;span style=&quot;font-size: 13px;&quot;&gt;global var1&lt;/span&gt;&lt;/font&gt;&lt;br&gt;&lt;font face=&quot;Public Sans, sans-serif&quot; color=&quot;#ffffff&quot;&gt;&lt;span style=&quot;font-size: 13px;&quot;&gt;var1 = 10  # var1 sẽ được sử dụng bởi tất cả các phần khác của chương trình&lt;/span&gt;&lt;/font&gt;&lt;br&gt;&lt;br&gt;&lt;div style=&quot;&quot;&gt;&lt;font face=&quot;Public Sans, sans-serif&quot; color=&quot;#ffffff&quot;&gt;&lt;span style=&quot;font-size: 13px;&quot;&gt;x = &quot;awesome&quot;&lt;/span&gt;&lt;/font&gt;&lt;/div&gt;&lt;div style=&quot;&quot;&gt;&lt;font face=&quot;Public Sans, sans-serif&quot; color=&quot;#ffffff&quot;&gt;&lt;span style=&quot;font-size: 13px;&quot;&gt;&lt;br&gt;&lt;/span&gt;&lt;/font&gt;&lt;/div&gt;&lt;div style=&quot;&quot;&gt;&lt;font face=&quot;Public Sans, sans-serif&quot; color=&quot;#ffffff&quot;&gt;&lt;span style=&quot;font-size: 13px;&quot;&gt;def myfunc():&lt;/span&gt;&lt;/font&gt;&lt;/div&gt;&lt;div style=&quot;&quot;&gt;&lt;font face=&quot;Public Sans, sans-serif&quot; color=&quot;#ffffff&quot;&gt;&lt;span style=&quot;font-size: 13px;&quot;&gt;&amp;nbsp; print(&quot;Python is &quot; + x)&lt;/span&gt;&lt;/font&gt;&lt;/div&gt;&lt;div style=&quot;&quot;&gt;&lt;font face=&quot;Public Sans, sans-serif&quot; color=&quot;#ffffff&quot;&gt;&lt;span style=&quot;font-size: 13px;&quot;&gt;&lt;br&gt;&lt;/span&gt;&lt;/font&gt;&lt;/div&gt;&lt;div style=&quot;&quot;&gt;&lt;font face=&quot;Public Sans, sans-serif&quot; color=&quot;#ffffff&quot;&gt;&lt;span style=&quot;font-size: 13px;&quot;&gt;myfunc()&lt;/span&gt;&lt;/font&gt;&lt;/div&gt;&lt;br&gt;&lt;/span&gt;" style="text;html=1;align=center;verticalAlign=middle;resizable=0;points=[];autosize=1;strokeColor=none;fillColor=none;" vertex="1" parent="22">
                    <mxGeometry x="35" y="30" width="660" height="230" as="geometry"/>
                </mxCell>
                <mxCell id="24" style="edgeStyle=none;html=1;" edge="1" parent="22" source="23" target="23">
                    <mxGeometry relative="1" as="geometry"/>
                </mxCell>
                <mxCell id="28" value="&lt;div&gt;x = &quot;awesome&quot;&lt;/div&gt;&lt;div&gt;&lt;br&gt;&lt;/div&gt;&lt;div&gt;def myfunc():&lt;/div&gt;&lt;div&gt;&amp;nbsp; x = &quot;fantastic&quot;&lt;/div&gt;&lt;div&gt;&amp;nbsp; print(&quot;Python is &quot; + x)&lt;/div&gt;&lt;div&gt;&lt;br&gt;&lt;/div&gt;&lt;div&gt;myfunc()&lt;/div&gt;&lt;div&gt;&lt;br&gt;&lt;/div&gt;&lt;div&gt;print(&quot;Python is &quot; + x)&lt;/div&gt;" style="text;html=1;align=center;verticalAlign=middle;resizable=0;points=[];autosize=1;strokeColor=none;fillColor=none;" vertex="1" parent="22">
                    <mxGeometry x="600" y="200" width="140" height="140" as="geometry"/>
                </mxCell>
                <mxCell id="29" value="Variable Exercises" style="swimlane;whiteSpace=wrap;html=1;" vertex="1" parent="1">
                    <mxGeometry x="-600" y="1580" width="310" height="160" as="geometry"/>
                </mxCell>
                <mxCell id="30" value="Python - Variable Exercises google" style="text;html=1;align=center;verticalAlign=middle;resizable=0;points=[];autosize=1;strokeColor=none;fillColor=none;" vertex="1" parent="29">
                    <mxGeometry x="50" y="90" width="210" height="30" as="geometry"/>
                </mxCell>
                <mxCell id="31" value="Python data types&lt;br&gt;" style="swimlane;whiteSpace=wrap;html=1;" vertex="1" parent="1">
                    <mxGeometry x="-830" y="1780" width="860" height="650" as="geometry"/>
                </mxCell>
                <mxCell id="32" value="&lt;span style=&quot;color: rgb(255, 255, 255); font-family: &amp;quot;Public Sans&amp;quot;, sans-serif; font-size: 13px; text-align: left; background-color: rgb(68, 72, 74);&quot;&gt;Các loại data types trong Python bao gồm:&lt;br&gt;&amp;nbsp;Numbers (số), Strings (chuỗi kí tự), Lists (danh sách), Tuples (tuple), Sets (bộ), Booleans (kiểu logic) và Dictionary (từ điển).&lt;/span&gt;" style="text;html=1;align=center;verticalAlign=middle;resizable=0;points=[];autosize=1;strokeColor=none;fillColor=none;" vertex="1" parent="31">
                    <mxGeometry x="45" y="30" width="740" height="40" as="geometry"/>
                </mxCell>
                <mxCell id="33" value="Getting the Data Type&lt;br&gt;use: type&lt;br&gt;ex: x = 5&lt;br&gt;print(type(x)) =&amp;gt; &amp;lt; class 'int' &amp;gt;&lt;br&gt;" style="text;html=1;align=center;verticalAlign=middle;resizable=0;points=[];autosize=1;strokeColor=none;fillColor=none;" vertex="1" parent="31">
                    <mxGeometry x="295" y="65" width="180" height="70" as="geometry"/>
                </mxCell>
                <mxCell id="34" value="x = 'Hello World' =&amp;gt; str&lt;br&gt;" style="text;html=1;align=center;verticalAlign=middle;resizable=0;points=[];autosize=1;strokeColor=none;fillColor=none;" vertex="1" parent="31">
                    <mxGeometry x="10" y="120" width="140" height="30" as="geometry"/>
                </mxCell>
                <mxCell id="35" value="x = 10 = &amp;gt; int&lt;br&gt;" style="text;html=1;align=center;verticalAlign=middle;resizable=0;points=[];autosize=1;strokeColor=none;fillColor=none;" vertex="1" parent="31">
                    <mxGeometry x="10" y="145" width="90" height="30" as="geometry"/>
                </mxCell>
                <mxCell id="36" value="x = 20.5 =&amp;gt; float&lt;br&gt;" style="text;html=1;align=center;verticalAlign=middle;resizable=0;points=[];autosize=1;strokeColor=none;fillColor=none;" vertex="1" parent="31">
                    <mxGeometry x="10" y="175" width="110" height="30" as="geometry"/>
                </mxCell>
                <mxCell id="37" value="x = 1j = &amp;gt; complex&lt;br&gt;" style="text;html=1;align=center;verticalAlign=middle;resizable=0;points=[];autosize=1;strokeColor=none;fillColor=none;" vertex="1" parent="31">
                    <mxGeometry x="10" y="205" width="120" height="30" as="geometry"/>
                </mxCell>
                <mxCell id="38" value="x = ['apple', 'banana', 'cherry'] =&amp;gt; list&lt;br&gt;" style="text;html=1;align=center;verticalAlign=middle;resizable=0;points=[];autosize=1;strokeColor=none;fillColor=none;" vertex="1" parent="31">
                    <mxGeometry y="235" width="220" height="30" as="geometry"/>
                </mxCell>
                <mxCell id="39" value="x = ('apple', 'banana', 'cherry') =&amp;gt; tuple&lt;br&gt;" style="text;html=1;align=center;verticalAlign=middle;resizable=0;points=[];autosize=1;strokeColor=none;fillColor=none;" vertex="1" parent="31">
                    <mxGeometry y="265" width="230" height="30" as="geometry"/>
                </mxCell>
                <mxCell id="40" value="x = range(6) = &amp;gt; range&lt;br&gt;" style="text;html=1;align=center;verticalAlign=middle;resizable=0;points=[];autosize=1;strokeColor=none;fillColor=none;" vertex="1" parent="31">
                    <mxGeometry x="10" y="310" width="140" height="30" as="geometry"/>
                </mxCell>
                <mxCell id="41" value="x = {&lt;br&gt;'name' : 'Ky',&lt;br&gt;'age': 24&lt;br&gt;} =&amp;gt;l ist" style="text;html=1;align=center;verticalAlign=middle;resizable=0;points=[];autosize=1;strokeColor=none;fillColor=none;" vertex="1" parent="31">
                    <mxGeometry y="340" width="90" height="70" as="geometry"/>
                </mxCell>
                <mxCell id="42" value="x = {'apple', 'banana', 'cherry'} =&amp;gt; set&lt;br&gt;" style="text;html=1;align=center;verticalAlign=middle;resizable=0;points=[];autosize=1;strokeColor=none;fillColor=none;" vertex="1" parent="31">
                    <mxGeometry x="5" y="420" width="220" height="30" as="geometry"/>
                </mxCell>
                <mxCell id="43" value="x = frozenset({&quot;apple&quot;, &quot;banana&quot;, &quot;cherry&quot;}) =&amp;gt;frozenset&lt;br&gt;" style="text;html=1;align=center;verticalAlign=middle;resizable=0;points=[];autosize=1;strokeColor=none;fillColor=none;" vertex="1" parent="31">
                    <mxGeometry x="5" y="450" width="320" height="30" as="geometry"/>
                </mxCell>
                <mxCell id="44" value="x = True = &amp;gt; bool&lt;br&gt;" style="text;html=1;align=center;verticalAlign=middle;resizable=0;points=[];autosize=1;strokeColor=none;fillColor=none;" vertex="1" parent="31">
                    <mxGeometry x="15" y="490" width="110" height="30" as="geometry"/>
                </mxCell>
                <mxCell id="45" value="x = b&quot;Hello&quot; =&amp;gt;bytes&lt;br&gt;" style="text;html=1;align=center;verticalAlign=middle;resizable=0;points=[];autosize=1;strokeColor=none;fillColor=none;" vertex="1" parent="31">
                    <mxGeometry x="10" y="530" width="130" height="30" as="geometry"/>
                </mxCell>
                <mxCell id="46" value="x = None = &amp;gt; None" style="text;html=1;align=center;verticalAlign=middle;resizable=0;points=[];autosize=1;strokeColor=none;fillColor=none;" vertex="1" parent="1">
                    <mxGeometry x="-800" y="2385" width="120" height="30" as="geometry"/>
                </mxCell>
                <mxCell id="47" value="Python Numbers" style="swimlane;whiteSpace=wrap;html=1;" vertex="1" parent="1">
                    <mxGeometry x="-1010" y="2450" width="340" height="190" as="geometry"/>
                </mxCell>
                <mxCell id="52" style="edgeStyle=none;html=1;" edge="1" parent="47" source="48" target="47">
                    <mxGeometry relative="1" as="geometry"/>
                </mxCell>
                <mxCell id="48" value="&lt;span style=&quot;color: rgb(255, 255, 255); font-family: &amp;quot;Public Sans&amp;quot;, sans-serif; font-size: 13px; text-align: left; background-color: rgb(68, 72, 74);&quot;&gt;Python sử dụng các dạng số sau: &lt;br/&gt; - &lt;br&gt;Số nguyên (integer): 2, -3, 5&lt;br/&gt;- &lt;br&gt;Số thực (floating point): 0.5, 1.5&lt;br/&gt;- &lt;br&gt;Số phức (complex): 3 + 4j&lt;/span&gt;" style="text;html=1;align=center;verticalAlign=middle;resizable=0;points=[];autosize=1;strokeColor=none;fillColor=none;" vertex="1" parent="47">
                    <mxGeometry x="50" y="30" width="220" height="120" as="geometry"/>
                </mxCell>
                <mxCell id="50" value="Casting&lt;br&gt;" style="swimlane;whiteSpace=wrap;html=1;" vertex="1" parent="1">
                    <mxGeometry x="-1150" y="2670" width="820" height="200" as="geometry"/>
                </mxCell>
                <mxCell id="51" value="&lt;span style=&quot;color: rgb(255, 255, 255); font-family: &amp;quot;Public Sans&amp;quot;, sans-serif; font-size: 13px; text-align: left; background-color: rgb(68, 72, 74);&quot;&gt;Casting trong lập trình Python là quá trình chuyển đổi kiểu dữ liệu của một biến hoặc giá trị từ một kiểu dữ liệu thành một kiểu dữ liệu khác. &lt;br&gt;Ví dụ, bạn có thể chuyển đổi một chuỗi thành một số nguyên bằng cách sử dụng int () phép chuyển đổi. &lt;br&gt;Ta có thể làm các chuyển đổi sau đây với Python: &lt;br/&gt; -int (x): chuyển đổi biến x thành một số nguyên &lt;br/&gt; -float (x): chuyển đổi biến x thành một số thực &lt;br/&gt; -str (x): chuyển đổi biến x thành một chuỗi &lt;br/&gt; -bool (x): chuyển đổi biến x thành True hoặc False&lt;/span&gt;" style="text;html=1;align=center;verticalAlign=middle;resizable=0;points=[];autosize=1;strokeColor=none;fillColor=none;" vertex="1" parent="50">
                    <mxGeometry y="40" width="830" height="120" as="geometry"/>
                </mxCell>
                <mxCell id="53" value="Python String&lt;br&gt;" style="swimlane;whiteSpace=wrap;html=1;" vertex="1" parent="1">
                    <mxGeometry x="-1660" y="2930" width="1260" height="1390" as="geometry"/>
                </mxCell>
                <mxCell id="54" value="&lt;span style=&quot;color: rgb(255, 255, 255); font-family: &amp;quot;Public Sans&amp;quot;, sans-serif; font-size: 13px; text-align: left; background-color: rgb(68, 72, 74);&quot;&gt;String trong Python là một chuỗi kí tự. Chuỗi được sử dụng để biểu diễn thông tin văn bản.&lt;br&gt;&amp;nbsp;Chúng ta có thể sử dụng một dãy các kí tự, kí hiệu, hoặc từ để tạo ra một chuỗi. &lt;br&gt;Ví dụ &quot;Hello World&quot; là một chuỗi. Bạn cũng có thể sử dụng String để lưu trữ thông tin như tên người dùng, mật khẩu, địa chỉ email, địa chỉ URL, v.v.&lt;/span&gt;" style="text;html=1;align=center;verticalAlign=middle;resizable=0;points=[];autosize=1;strokeColor=none;fillColor=none;" vertex="1" parent="53">
                    <mxGeometry x="-10" y="50" width="870" height="60" as="geometry"/>
                </mxCell>
                <mxCell id="56" value="&lt;span style=&quot;color: rgb(255, 255, 255); font-family: &amp;quot;Public Sans&amp;quot;, sans-serif; font-size: 13px; text-align: left; background-color: rgb(68, 72, 74);&quot;&gt; Để khai báo một biến có kiểu dữ liệu là string trong python, bạn chỉ cần sử dụng cú pháp sau:&lt;br/&gt; &amp;lt;biến_tên&amp;gt; = &quot;Giá trị của biến&quot;&lt;/span&gt;" style="text;html=1;align=center;verticalAlign=middle;resizable=0;points=[];autosize=1;strokeColor=none;fillColor=none;" vertex="1" parent="53">
                    <mxGeometry x="120" y="120" width="560" height="40" as="geometry"/>
                </mxCell>
                <mxCell id="57" value="String are Arrays&lt;br&gt;" style="text;html=1;align=center;verticalAlign=middle;resizable=0;points=[];autosize=1;strokeColor=none;fillColor=none;" vertex="1" parent="53">
                    <mxGeometry x="340" y="180" width="110" height="30" as="geometry"/>
                </mxCell>
                <mxCell id="58" value="&lt;span style=&quot;color: rgb(255, 255, 255); font-family: &amp;quot;Public Sans&amp;quot;, sans-serif; font-size: 13px; text-align: left; background-color: rgb(68, 72, 74);&quot;&gt;Có thể sử dụng cú pháp [index] để truy cập vị trí index trong một chuỗi. Ví dụ: &lt;br/&gt; myString = &quot;Hello World&quot;&lt;br/&gt; print(myString[6])&lt;/span&gt;" style="text;html=1;align=center;verticalAlign=middle;resizable=0;points=[];autosize=1;strokeColor=none;fillColor=none;" vertex="1" parent="53">
                    <mxGeometry x="180" y="220" width="470" height="60" as="geometry"/>
                </mxCell>
                <mxCell id="59" value="For in String&lt;br&gt;" style="text;html=1;align=center;verticalAlign=middle;resizable=0;points=[];autosize=1;strokeColor=none;fillColor=none;" vertex="1" parent="53">
                    <mxGeometry x="355" y="280" width="90" height="30" as="geometry"/>
                </mxCell>
                <mxCell id="60" value="&lt;span style=&quot;color: rgb(255, 255, 255); font-family: &amp;quot;Public Sans&amp;quot;, sans-serif; font-size: 13px; text-align: left; background-color: rgb(68, 72, 74);&quot;&gt; myString = 'Hello world'&lt;br/&gt;# Vòng lặp for để in ra từng ký tự trong myString&lt;br/&gt;for item in myString:&lt;br/&gt;  print(item) &lt;br/&gt; # Kết quả&lt;br/&gt;H&lt;br/&gt;e&lt;br/&gt;l&lt;br/&gt;l&lt;br/&gt;o&lt;br/&gt; w&lt;br/&gt;o&lt;br/&gt;r&lt;br/&gt;l&lt;br/&gt;d&lt;/span&gt;" style="text;html=1;align=center;verticalAlign=middle;resizable=0;points=[];autosize=1;strokeColor=none;fillColor=none;" vertex="1" parent="53">
                    <mxGeometry x="250" y="330" width="300" height="250" as="geometry"/>
                </mxCell>
                <mxCell id="61" value="&lt;span style=&quot;color: rgb(255, 255, 255); font-family: &amp;quot;Public Sans&amp;quot;, sans-serif; font-size: 13px; text-align: left; background-color: rgb(68, 72, 74);&quot;&gt;Bạn có thể sử dụng hàm len () để kiểm tra độ dài của một chuỗi trong Python.&lt;br&gt;&amp;nbsp;Ví dụ:&lt;br/&gt; #chỉ định một chuỗi&lt;br/&gt;string = 'Hello World!'&lt;br/&gt; #Sử dụng hàm len () để đo độ dài của chuỗi&lt;br/&gt;string_length = len(string)&lt;br/&gt; #Hiển thị kết quả&lt;br/&gt;print('Độ dài chuỗi là: ', string_length)&lt;br/&gt; #Kết quả mong đợi&lt;br/&gt;#Độ dài chuỗi là: 12&lt;/span&gt;" style="text;html=1;align=center;verticalAlign=middle;resizable=0;points=[];autosize=1;strokeColor=none;fillColor=none;" vertex="1" parent="53">
                    <mxGeometry x="165" y="610" width="470" height="170" as="geometry"/>
                </mxCell>
                <mxCell id="62" value="&lt;span style=&quot;color: rgb(255, 255, 255); font-family: &amp;quot;Public Sans&amp;quot;, sans-serif; font-size: 13px; text-align: left; background-color: rgb(68, 72, 74);&quot;&gt;Python có một built-in string method để xem xét việc kết hợp trên hai chuỗi&lt;br&gt;Đó là phương thức .find(). Phương thức .find() trả về số nguyên cho chỉ số của chuỗi được tìm thấy trong chuỗi khác nếu tìm thấy.&lt;br&gt;&amp;nbsp;Nếu không tìm thấy, phương thức sẽ trả về giá trị -1. Ví dụ:&lt;br&gt; string1 = 'Hello World'&lt;br&gt;string2 = 'World'&lt;br&gt;#Tìm chuỗi 2 trong chuỗi 1&lt;br&gt; index = string1.find(string2)&lt;br&gt; #Kiểm tra kết quả&lt;br&gt;if index != -1:&lt;br&gt;    print('String 2 tìm thấy trong String 1 tại vị trí', index)&lt;br&gt; else:&lt;br&gt;    print('String 2 không tìm thấy trong String 1')&lt;/span&gt;" style="text;html=1;align=center;verticalAlign=middle;resizable=0;points=[];autosize=1;strokeColor=none;fillColor=none;" vertex="1" parent="53">
                    <mxGeometry x="15" y="810" width="770" height="200" as="geometry"/>
                </mxCell>
                <mxCell id="63" value="&lt;span style=&quot;color: rgb(255, 255, 255); font-family: &amp;quot;Public Sans&amp;quot;, sans-serif; font-size: 13px; text-align: left; background-color: rgb(68, 72, 74);&quot;&gt;Chỉ mục slicing là cách truy cập cụ thể các phần tử của một chuỗi bằng cách sử dụng dấu hai chấm (:), và sử dụng, có thể là các số nguyên hoặc cả các địa chỉ, để biểu diễn khoảng cách. &lt;br&gt;Vì vậy, từ bạn có thể truy cập những phần tử của chuỗi cụ thể.&lt;br&gt; Ví dụ:&lt;br&gt; Chuỗi: 'Hello World'&lt;br&gt; Cách truy cập lấy các phần tử cụ thể trong chuỗi trên:&lt;br&gt; 1. Truy cập toàn bộ chuỗi:&lt;br&gt;Chuỗi [:] &lt;br&gt;Kết quả: 'Hello World'&lt;br&gt; 2. Lấy ký tự thứ 2 đến thứ 5 :&lt;br&gt;Chuỗi [1:5] &lt;br&gt;Kết quả: 'ello'&lt;br&gt; 3. Lấy ký tự thứ 6 trở về sau:&lt;br&gt;Chuỗi [5:] &lt;br&gt;Kết quả: 'World'&lt;/span&gt;" style="text;html=1;align=center;verticalAlign=middle;resizable=0;points=[];autosize=1;strokeColor=none;fillColor=none;" vertex="1" parent="53">
                    <mxGeometry x="60" y="1065" width="1100" height="230" as="geometry"/>
                </mxCell>
                <mxCell id="64" value="List in python&lt;br&gt;" style="swimlane;whiteSpace=wrap;html=1;" vertex="1" parent="1">
                    <mxGeometry x="-1640" y="4380" width="1110" height="400" as="geometry"/>
                </mxCell>
                <mxCell id="65" value="&lt;span style=&quot;color: rgb(255, 255, 255); font-family: &amp;quot;Public Sans&amp;quot;, sans-serif; font-size: 13px; text-align: left; background-color: rgb(68, 72, 74);&quot;&gt; Khởi tạo một list trong Python rất đơn giản. Chỉ cần sử dụng ngoặc vuông [] để bao quanh danh sách các phần tử bên trong. &lt;br&gt;Ví dụ: fruits = ['apple', 'mango', 'banana'].&lt;/span&gt;" style="text;html=1;align=center;verticalAlign=middle;resizable=0;points=[];autosize=1;strokeColor=none;fillColor=none;" vertex="1" parent="64">
                    <mxGeometry x="25" y="40" width="740" height="40" as="geometry"/>
                </mxCell>
                <mxCell id="66" value="&lt;span style=&quot;color: rgb(255, 255, 255); font-family: &amp;quot;Public Sans&amp;quot;, sans-serif; font-size: 13px; text-align: left; background-color: rgb(68, 72, 74);&quot;&gt;Để kiểm tra độ dài của một list trong Python, bạn có thể sử dụng hàm len(). Hàm này sẽ trả về số lượng phần tử có trong một list.&lt;br&gt;&amp;nbsp;Ví dụ: mylist = [1, 2, 3, 4] len(mylist) sẽ trả lại kết quả là 4, tức là list có 4 phần tử.&lt;/span&gt;" style="text;html=1;align=center;verticalAlign=middle;resizable=0;points=[];autosize=1;strokeColor=none;fillColor=none;" vertex="1" parent="64">
                    <mxGeometry x="45" y="100" width="770" height="40" as="geometry"/>
                </mxCell>
                <mxCell id="67" value="&lt;span style=&quot;color: rgb(255, 255, 255); font-family: &amp;quot;Public Sans&amp;quot;, sans-serif; font-size: 13px; text-align: left; background-color: rgb(68, 72, 74);&quot;&gt;Access items là một khái niệm trong python, bạn có thể truy cập các phần tử trong một ký hiệu, một danh sách, một chuỗi hoặc một tuple.&lt;br&gt;&amp;nbsp;Ví dụ, nếu bạn muốn truy cập phần tử thứ ba trong danh sách my_list, bạn có thể sử dụng my_list[2] để lấy ra nó.&lt;/span&gt;" style="text;html=1;align=center;verticalAlign=middle;resizable=0;points=[];autosize=1;strokeColor=none;fillColor=none;" vertex="1" parent="64">
                    <mxGeometry x="80" y="150" width="820" height="40" as="geometry"/>
                </mxCell>
                <mxCell id="68" value="&lt;span style=&quot;color: rgb(255, 255, 255); font-family: &amp;quot;Public Sans&amp;quot;, sans-serif; font-size: 13px; text-align: left; background-color: rgb(68, 72, 74);&quot;&gt;: Change Item Value là một khái niệm trong lập trình Python được sử dụng để thay đổi giá trị của một phần tử bên trong một cấu trúc dữ liệu như một danh sách, bảng băm, &lt;br&gt;hay (từ chỉ định) hoặc một từ điển.&lt;br&gt;&amp;nbsp;Ví dụ, bạn có thể sử dụng các cuộc hành động để thay đổi giá trị các phần tử bên trong danh sách của bạn:&lt;br&gt;&amp;nbsp;my_list = [1, 2, 3, 4] &lt;br/&gt; # Thay đổi giá trị phần tử thứ 2 thành 5 &lt;br/&gt;my_list[1] = 5 &lt;br/&gt; # In ra danh sách để xem giá trị đã được thay đổi&lt;br/&gt;print(my_list)  # [1, 5, 3, 4]&lt;/span&gt;" style="text;html=1;align=center;verticalAlign=middle;resizable=0;points=[];autosize=1;strokeColor=none;fillColor=none;" vertex="1" parent="64">
                    <mxGeometry x="10" y="200" width="1020" height="140" as="geometry"/>
                </mxCell>
            </root>
        </mxGraphModel>
    </diagram>
</mxfile>